<svg width="28" height="32" viewBox="0 0 28 32" fill="none" xmlns="http://www.w3.org/2000/svg">
<g clip-path="url(#clip0_296_392)">
<path d="M27.8477 25.1854C27.381 27.123 25.8644 28.2119 23.8301 28.5797C22.0436 28.8979 20.5562 28.9756 19.127 27.8584C17.3844 26.437 17.3625 24.0823 18.9302 22.5973C20.1697 21.4518 21.9124 21.2184 24.53 20.7729C24.9675 20.6951 25.3467 20.5961 25.6675 20.2496C26.1342 19.7405 25.9883 19.9597 25.9883 8.70928C25.9883 7.91729 25.5873 7.69808 24.7488 7.8395C24.1509 7.9385 11.2085 10.2862 11.2085 10.2862C10.4647 10.4417 10.2314 10.6539 10.2314 11.4671C10.2314 28.0634 10.3116 27.2997 10.0491 28.4029C9.74286 29.6898 8.92621 30.6586 7.84707 31.196C6.62209 31.8537 4.40548 32.1436 3.22425 31.9314C0.0743191 31.3587 -1.03399 27.8301 1.10242 25.8077C2.34198 24.6621 4.08465 24.4288 6.7023 23.9833C7.13979 23.9055 7.51895 23.8065 7.83978 23.46C8.57622 22.6468 7.97102 5.31505 8.21893 4.35335C8.27727 3.98564 8.43768 3.6745 8.73663 3.44115C9.04288 3.19366 9.59703 3.05223 9.71369 3.05223C24.5884 0.350989 26.404 0.00449538 26.6592 0.00449538C27.4977 -0.0520751 27.9789 0.428774 27.9789 1.24905C27.9935 25.6097 28.0591 24.3015 27.8477 25.1854Z" fill="white"/>
</g>
<defs>
<clipPath id="clip0_296_392">
<rect width="28" height="32" fill="white"/>
</clipPath>
</defs>
</svg>
